# xmcd
#
# Track frame offsets:
#  150
#  10976
#  21808
#  33706
#  46274
#  57566
#  68510
#  78019
#  91198
#  102428
#
# Disc length: 1517 seconds
#
# Revision: 0
# Processed by: cddbd v1.5.1PL0 Copyright (c) Steve Scherf et al.
# Submitted via: Collectorz.com_Music_Collector 6.9
#
DISCID=7405eb0a
DTITLE=Wilburn Brothers - That Country Feeling
DYEAR=1900
DGENRE=Country
TTITLE0=That's When I Miss You
TTITLE1=Cry, Cry Darling
TTITLE2=I Know You Don't Love Me Anymore
TTITLE3=Teddy Wilburn (Solo) - You Win Again
TTITLE4=Doyle Wilburn (Solo) - I'll Sail My Ship Alone
TTITLE5=Don't Sweetheart Me
TTITLE6=Time Changes Everything
TTITLE7=One Has My Name The Other Has My Heart
TTITLE8=You Can't Break The Chains Of My Heart
TTITLE9=Much Too Ofter
EXTD=
EXTT0=
EXTT1=
EXTT2=
EXTT3=
EXTT4=
EXTT5=
EXTT6=
EXTT7=
EXTT8=
EXTT9=
PLAYORDER=
